<?xml version="1.0" encoding="UTF-8" standalone="no"?>
<!DOCTYPE svg PUBLIC "-//W3C//DTD SVG 1.1//EN"
 "http://www.w3.org/Graphics/SVG/1.1/DTD/svg11.dtd">
<!-- Generated by graphviz version 2.38.0 (20140413.2041)
 -->
<!-- Title: auth Pages: 1 -->
<svg width="348pt" height="77pt"
 viewBox="0.00 0.00 347.50 77.25" xmlns="http://www.w3.org/2000/svg" xmlns:xlink="http://www.w3.org/1999/xlink">
<g id="layer_04_graph0" class="graph" transform="scale(1 1) rotate(0) translate(4 73.2502)">
<title>auth</title>
<polygon fill="#fafafa" stroke="none" points="-4,4 -4,-73.2502 343.5,-73.2502 343.5,4 -4,4"/>
<!-- Alice -->
<g id="layer_04_node1_layer_04" class="node"><title>Alice</title>
<ellipse fill="none" stroke="#23373b" cx="50" cy="-22.2502" rx="27" ry="18"/>
<text text-anchor="middle" x="50" y="-19.4502" font-family="Fira Sans light" font-size="11.00" fill="#23373b">Alice</text>
</g>
<!-- Alice&#45;&gt;Alice -->
<g id="layer_04_edge4" class="edge"><title>Alice&#45;&gt;Alice</title>
<path fill="none" stroke="#23373b" d="M32.2754,-35.9172C25.1855,-46.9065 31.0938,-58.2502 50,-58.2502 62.998,-58.2502 69.8525,-52.8885 70.5633,-45.9665"/>
<polygon fill="#23373b" stroke="#23373b" points="73.8113,-44.5892 67.7246,-35.9172 67.0749,-46.4921 73.8113,-44.5892"/>
<text text-anchor="middle" x="50" y="-61.2502" font-family="Fira Sans light" font-size="10.00" fill="#23373b">04. Verify PoP (public)</text>
</g>
<!-- Bob -->
<g id="layer_04_node2_layer_04" class="node"><title>Bob</title>
<ellipse fill="none" stroke="#23373b" cx="273" cy="-22.2502" rx="27" ry="18"/>
<text text-anchor="middle" x="273" y="-19.4502" font-family="Fira Sans light" font-size="11.00" fill="#23373b">Bob</text>
</g>
<!-- Alice&#45;&gt;Bob -->
<g id="layer_04_edge1" class="edge"><title>Alice&#45;&gt;Bob</title>
<path fill="none" stroke="#23373b" d="M77.2195,-22.2502C116.596,-22.2502 191.127,-22.2502 235.705,-22.2502"/>
<polygon fill="#23373b" stroke="#23373b" points="235.815,-25.7503 245.815,-22.2502 235.815,-18.7503 235.815,-25.7503"/>
<text text-anchor="middle" x="161.5" y="-25.2502" font-family="Fira Sans light" font-size="10.00" fill="#23373b">01. Send information</text>
</g>
<!-- Bob&#45;&gt;Alice -->
<g id="layer_04_edge3" class="edge"><title>Bob&#45;&gt;Alice</title>
<path fill="none" stroke="#23373b" d="M249.53,-13.0069C242.731,-10.6447 235.166,-8.43808 228,-7.25022 169.685,2.41674 153.315,2.41674 95,-7.25022 91.0812,-7.89983 87.0429,-8.85412 83.0758,-9.97191"/>
<polygon fill="#23373b" stroke="#23373b" points="81.951,-6.65668 73.4701,-13.0069 84.06,-13.3314 81.951,-6.65668"/>
<text text-anchor="middle" x="161.5" y="-10.2502" font-family="Fira Sans light" font-size="10.00" fill="#23373b">03. Proof of Possession (PoP)</text>
</g>
<!-- Bob&#45;&gt;Bob -->
<g id="layer_04_edge2" class="edge"><title>Bob&#45;&gt;Bob</title>
<path fill="none" stroke="#23373b" d="M255.275,-35.9172C248.186,-46.9065 254.094,-58.2502 273,-58.2502 285.998,-58.2502 292.852,-52.8885 293.563,-45.9665"/>
<polygon fill="#23373b" stroke="#23373b" points="296.811,-44.5892 290.725,-35.9172 290.075,-46.4921 296.811,-44.5892"/>
<text text-anchor="middle" x="273" y="-61.2502" font-family="Fira Sans light" font-size="10.00" fill="#23373b">02. Sign information (private)</text>
</g>
</g>
</svg>
