<?xml version="1.0" encoding="UTF-8" standalone="no"?>
<!DOCTYPE svg PUBLIC "-//W3C//DTD SVG 1.1//EN"
 "http://www.w3.org/Graphics/SVG/1.1/DTD/svg11.dtd">
<!-- Generated by graphviz version 2.38.0 (20140413.2041)
 -->
<!-- Title: finite_state_machine Pages: 1 -->
<svg width="307pt" height="73pt"
 viewBox="0.00 0.00 306.50 73.00" xmlns="http://www.w3.org/2000/svg" xmlns:xlink="http://www.w3.org/1999/xlink">
<g id="layer_03_graph0" class="graph" transform="scale(1 1) rotate(0) translate(4 69)">
<title>finite_state_machine</title>
<polygon fill="#fafafa" stroke="none" points="-4,4 -4,-69 302.5,-69 302.5,4 -4,4"/>
<!-- Alice -->
<g id="layer_03_node1_layer_03" class="node"><title>Alice</title>
<ellipse fill="none" stroke="#23373b" cx="64" cy="-18" rx="27" ry="18"/>
<text text-anchor="middle" x="64" y="-15.2" font-family="Fira Sans light" font-size="11.00" fill="#23373b">Alice</text>
</g>
<!-- Alice&#45;&gt;Alice -->
<g id="layer_03_edge1" class="edge"><title>Alice&#45;&gt;Alice</title>
<path fill="none" stroke="#23373b" d="M49.6381,-33.5414C45.5955,-43.9087 50.3828,-54 64,-54 72.9363,-54 78.0698,-49.654 79.4007,-43.7362"/>
<polygon fill="#23373b" stroke="#23373b" points="82.8577,-43.1351 78.3619,-33.5414 75.8937,-43.8448 82.8577,-43.1351"/>
<text text-anchor="middle" x="64" y="-57" font-family="Fira Sans light" font-size="10.00" fill="#23373b">01. Encrypt message (public)</text>
</g>
<!-- Bob -->
<g id="layer_03_node2_layer_03" class="node"><title>Bob</title>
<ellipse fill="none" stroke="#23373b" cx="233" cy="-18" rx="27" ry="18"/>
<text text-anchor="middle" x="233" y="-15.2" font-family="Fira Sans light" font-size="11.00" fill="#23373b">Bob</text>
</g>
<!-- Alice&#45;&gt;Bob -->
<g id="layer_03_edge2" class="edge"><title>Alice&#45;&gt;Bob</title>
<path fill="none" stroke="#23373b" d="M91.0938,-18C119.199,-18 164.121,-18 195.671,-18"/>
<polygon fill="#23373b" stroke="#23373b" points="195.814,-21.5001 205.814,-18 195.814,-14.5001 195.814,-21.5001"/>
<text text-anchor="middle" x="148.5" y="-21" font-family="Fira Sans light" font-size="10.00" fill="#23373b">02. Send message</text>
</g>
<!-- Bob&#45;&gt;Bob -->
<g id="layer_03_edge3" class="edge"><title>Bob&#45;&gt;Bob</title>
<path fill="none" stroke="#23373b" d="M218.638,-33.5414C214.596,-43.9087 219.383,-54 233,-54 241.936,-54 247.07,-49.654 248.401,-43.7362"/>
<polygon fill="#23373b" stroke="#23373b" points="251.858,-43.1351 247.362,-33.5414 244.894,-43.8448 251.858,-43.1351"/>
<text text-anchor="middle" x="233" y="-57" font-family="Fira Sans light" font-size="10.00" fill="#23373b">03. Decrypt message (private)</text>
</g>
</g>
</svg>
