<?xml version="1.0" encoding="UTF-8" standalone="no"?>
<!DOCTYPE svg PUBLIC "-//W3C//DTD SVG 1.1//EN"
 "http://www.w3.org/Graphics/SVG/1.1/DTD/svg11.dtd">
<!-- Generated by graphviz version 2.38.0 (20140413.2041)
 -->
<!-- Title: gen_key_pair Pages: 1 -->
<svg width="255pt" height="73pt"
 viewBox="0.00 0.00 255.00 73.00" xmlns="http://www.w3.org/2000/svg" xmlns:xlink="http://www.w3.org/1999/xlink">
<g id="layer_02_graph0" class="graph" transform="scale(1 1) rotate(0) translate(4 69)">
<title>gen_key_pair</title>
<polygon fill="#fafafa" stroke="none" points="-4,4 -4,-69 251,-69 251,4 -4,4"/>
<!-- Alice -->
<g id="layer_02_node1_layer_02" class="node"><title>Alice</title>
<ellipse fill="none" stroke="#23373b" cx="47.5" cy="-18" rx="27" ry="18"/>
<text text-anchor="middle" x="47.5" y="-15.2" font-family="Fira Sans light" font-size="11.00" fill="#23373b">Alice</text>
</g>
<!-- Alice&#45;&gt;Alice -->
<g id="layer_02_edge1" class="edge"><title>Alice&#45;&gt;Alice</title>
<path fill="none" stroke="#23373b" d="M34.3772,-33.916C30.9539,-44.1504 35.3281,-54 47.5,-54 55.4878,-54 60.1174,-49.7581 61.3889,-43.9494"/>
<polygon fill="#23373b" stroke="#23373b" points="64.8741,-43.6205 60.6228,-33.916 57.8944,-44.1535 64.8741,-43.6205"/>
<text text-anchor="middle" x="47.5" y="-57" font-family="Fira Sans light" font-size="10.00" fill="#23373b">01. Generate key pair</text>
</g>
<!-- Bob -->
<g id="layer_02_node2_layer_02" class="node"><title>Bob</title>
<ellipse fill="none" stroke="#23373b" cx="199.5" cy="-18" rx="27" ry="18"/>
<text text-anchor="middle" x="199.5" y="-15.2" font-family="Fira Sans light" font-size="11.00" fill="#23373b">Bob</text>
</g>
<!-- Alice&#45;&gt;Bob -->
<g id="layer_02_edge3" class="edge"><title>Alice&#45;&gt;Bob</title>
<path fill="none" stroke="#23373b" d="M84.865,-18C108.328,-18 138.73,-18 162.183,-18"/>
<polygon fill="#23373b" stroke="#23373b" points="84.628,-14.5001 74.628,-18 84.628,-21.5001 84.628,-14.5001"/>
<polygon fill="#23373b" stroke="#23373b" points="162.42,-21.5001 172.42,-18 162.42,-14.5001 162.42,-21.5001"/>
<text text-anchor="middle" x="123.5" y="-21" font-family="Fira Sans light" font-size="10.00" fill="#23373b">03. Public key</text>
</g>
<!-- Bob&#45;&gt;Bob -->
<g id="layer_02_edge2" class="edge"><title>Bob&#45;&gt;Bob</title>
<path fill="none" stroke="#23373b" d="M186.377,-33.916C182.954,-44.1504 187.328,-54 199.5,-54 207.488,-54 212.117,-49.7581 213.389,-43.9494"/>
<polygon fill="#23373b" stroke="#23373b" points="216.874,-43.6205 212.623,-33.916 209.894,-44.1535 216.874,-43.6205"/>
<text text-anchor="middle" x="199.5" y="-57" font-family="Fira Sans light" font-size="10.00" fill="#23373b">02. Generate key pair</text>
</g>
</g>
</svg>
