<?xml version="1.0" encoding="UTF-8" standalone="no"?>
<!DOCTYPE svg PUBLIC "-//W3C//DTD SVG 1.1//EN"
 "http://www.w3.org/Graphics/SVG/1.1/DTD/svg11.dtd">
<!-- Generated by graphviz version 2.38.0 (20140413.2041)
 -->
<!-- Title: life_cycle Pages: 1 -->
<svg width="438pt" height="222pt"
 viewBox="0.00 0.00 438.00 222.00" xmlns="http://www.w3.org/2000/svg" xmlns:xlink="http://www.w3.org/1999/xlink">
<g id="layer_04_graph0" class="graph" transform="scale(1 1) rotate(0) translate(4 218)">
<title>life_cycle</title>
<polygon fill="#fafafa" stroke="none" points="-4,4 -4,-218 434,-218 434,4 -4,4"/>
<!-- 02. Attestation -->
<g id="layer_04_node1_layer_04" class="node"><title>02. Attestation</title>
<ellipse fill="none" stroke="#23373b" cx="52.2703" cy="-22.0429" rx="52.1334" ry="18"/>
<text text-anchor="middle" x="52.2703" y="-19.2429" font-family="Fira Sans light" font-size="11.00" fill="#23373b">02. Attestation</text>
</g>
<!-- 03. Issuance -->
<g id="layer_04_node3_layer_04" class="node"><title>03. Issuance</title>
<ellipse fill="none" stroke="#23373b" cx="200.89" cy="-72.5635" rx="46.1069" ry="18"/>
<text text-anchor="middle" x="200.89" y="-69.7635" font-family="Fira Sans light" font-size="11.00" fill="#23373b">03. Issuance</text>
</g>
<!-- 02. Attestation&#45;&gt;03. Issuance -->
<g id="layer_04_edge3" class="edge"><title>02. Attestation&#45;&gt;03. Issuance</title>
<path fill="none" stroke="#23373b" d="M89.7732,-34.7914C109.965,-41.6552 135.007,-50.1679 156.204,-57.3734"/>
<polygon fill="#23373b" stroke="#23373b" points="155.357,-60.782 165.951,-60.6867 157.61,-54.1544 155.357,-60.782"/>
</g>
<!-- 01. Registration -->
<g id="layer_04_node5_layer_04" class="node"><title>01. Registration</title>
<ellipse fill="none" stroke="#23373b" cx="82.3993" cy="-176.136" rx="54.9444" ry="18"/>
<text text-anchor="middle" x="82.3993" y="-173.336" font-family="Fira Sans light" font-size="11.00" fill="#23373b">01. Registration</text>
</g>
<!-- 01. Registration&#45;&gt;02. Attestation -->
<g id="layer_04_edge1" class="edge"><title>01. Registration&#45;&gt;02. Attestation</title>
<path fill="none" stroke="#23373b" stroke-dasharray="5,2" d="M78.8841,-158.158C73.6961,-131.624 63.9408,-81.7312 57.7917,-50.282"/>
<polygon fill="#23373b" stroke="#23373b" points="61.2104,-49.5265 55.8564,-40.384 54.3405,-50.8698 61.2104,-49.5265"/>
</g>
<!-- 01. Registration&#45;&gt;03. Issuance -->
<g id="layer_04_edge2" class="edge"><title>01. Registration&#45;&gt;03. Issuance</title>
<path fill="none" stroke="#23373b" stroke-dasharray="5,2" d="M101.701,-159.265C121.441,-142.009 152.257,-115.073 174.301,-95.8047"/>
<polygon fill="#23373b" stroke="#23373b" points="176.763,-98.3013 181.989,-89.0849 172.156,-93.0309 176.763,-98.3013"/>
</g>
</g>
</svg>
