<?xml version="1.0" encoding="UTF-8" standalone="no"?>
<!DOCTYPE svg PUBLIC "-//W3C//DTD SVG 1.1//EN"
 "http://www.w3.org/Graphics/SVG/1.1/DTD/svg11.dtd">
<!-- Generated by graphviz version 2.38.0 (20140413.2041)
 -->
<!-- Title: sign Pages: 1 -->
<svg width="298pt" height="73pt"
 viewBox="0.00 0.00 297.50 73.00" xmlns="http://www.w3.org/2000/svg" xmlns:xlink="http://www.w3.org/1999/xlink">
<g id="layer_03_graph0" class="graph" transform="scale(1 1) rotate(0) translate(4 69)">
<title>sign</title>
<polygon fill="#fafafa" stroke="none" points="-4,4 -4,-69 293.5,-69 293.5,4 -4,4"/>
<!-- Alice -->
<g id="layer_03_node1_layer_03" class="node"><title>Alice</title>
<ellipse fill="none" stroke="#23373b" cx="58.5" cy="-18" rx="27" ry="18"/>
<text text-anchor="middle" x="58.5" y="-15.2" font-family="Fira Sans light" font-size="11.00" fill="#23373b">Alice</text>
</g>
<!-- Alice&#45;&gt;Alice -->
<g id="layer_03_edge1" class="edge"><title>Alice&#45;&gt;Alice</title>
<path fill="none" stroke="#23373b" d="M44.1381,-33.5414C40.0955,-43.9087 44.8828,-54 58.5,-54 67.4363,-54 72.5698,-49.654 73.9007,-43.7362"/>
<polygon fill="#23373b" stroke="#23373b" points="77.3577,-43.1351 72.8619,-33.5414 70.3937,-43.8448 77.3577,-43.1351"/>
<text text-anchor="middle" x="58.5" y="-57" font-family="Fira Sans light" font-size="10.00" fill="#23373b">01. Sign message (private)</text>
</g>
<!-- Bob -->
<g id="layer_03_node2_layer_03" class="node"><title>Bob</title>
<ellipse fill="none" stroke="#23373b" cx="227.5" cy="-18" rx="27" ry="18"/>
<text text-anchor="middle" x="227.5" y="-15.2" font-family="Fira Sans light" font-size="11.00" fill="#23373b">Bob</text>
</g>
<!-- Alice&#45;&gt;Bob -->
<g id="layer_03_edge2" class="edge"><title>Alice&#45;&gt;Bob</title>
<path fill="none" stroke="#23373b" d="M85.5938,-18C113.699,-18 158.621,-18 190.171,-18"/>
<polygon fill="#23373b" stroke="#23373b" points="190.314,-21.5001 200.314,-18 190.314,-14.5001 190.314,-21.5001"/>
<text text-anchor="middle" x="143" y="-21" font-family="Fira Sans light" font-size="10.00" fill="#23373b">02. Send message</text>
</g>
<!-- Bob&#45;&gt;Bob -->
<g id="layer_03_edge3" class="edge"><title>Bob&#45;&gt;Bob</title>
<path fill="none" stroke="#23373b" d="M213.138,-33.5414C209.096,-43.9087 213.883,-54 227.5,-54 236.436,-54 241.57,-49.654 242.901,-43.7362"/>
<polygon fill="#23373b" stroke="#23373b" points="246.358,-43.1351 241.862,-33.5414 239.394,-43.8448 246.358,-43.1351"/>
<text text-anchor="middle" x="227.5" y="-57" font-family="Fira Sans light" font-size="10.00" fill="#23373b">03. Verify signature (public)</text>
</g>
</g>
</svg>
