<?xml version="1.0" encoding="UTF-8" standalone="no"?>
<!DOCTYPE svg PUBLIC "-//W3C//DTD SVG 1.1//EN"
 "http://www.w3.org/Graphics/SVG/1.1/DTD/svg11.dtd">
<!-- Generated by graphviz version 2.38.0 (20140413.2041)
 -->
<!-- Title: auth Pages: 1 -->
<svg width="371pt" height="77pt"
 viewBox="0.00 0.00 371.00 77.25" xmlns="http://www.w3.org/2000/svg" xmlns:xlink="http://www.w3.org/1999/xlink">
<g id="graph0" class="graph" transform="scale(1 1) rotate(0) translate(4 73.2502)">
<title>auth</title>
<polygon fill="#fafafa" stroke="none" points="-4,4 -4,-73.2502 367,-73.2502 367,4 -4,4"/>
<!-- Alice -->
<g id="node1" class="node"><title>Alice</title>
<ellipse fill="none" stroke="#23373b" cx="64.5" cy="-22.2502" rx="27" ry="18"/>
<text text-anchor="middle" x="64.5" y="-19.4502" font-family="Fira Sans light" font-size="11.00" fill="#23373b">Alice</text>
</g>
<!-- Bob -->
<g id="node2" class="node"><title>Bob</title>
<ellipse fill="none" stroke="#23373b" cx="287.5" cy="-22.2502" rx="27" ry="18"/>
<text text-anchor="middle" x="287.5" y="-19.4502" font-family="Fira Sans light" font-size="11.00" fill="#23373b">Bob</text>
</g>
<!-- Alice&#45;&gt;Bob -->
<g id="edge1" class="edge"><title>Alice&#45;&gt;Bob</title>
<path fill="none" stroke="#23373b" d="M91.7195,-22.2502C131.096,-22.2502 205.627,-22.2502 250.205,-22.2502"/>
<polygon fill="#23373b" stroke="#23373b" points="250.315,-25.7503 260.315,-22.2502 250.315,-18.7503 250.315,-25.7503"/>
<text text-anchor="middle" x="176" y="-25.2502" font-family="Fira Sans light" font-size="10.00" fill="#23373b">01. Zend informatie</text>
</g>
<!-- Bob&#45;&gt;Alice -->
<g id="edge3" class="edge"><title>Bob&#45;&gt;Alice</title>
<path fill="none" stroke="#23373b" d="M264.03,-13.0069C257.231,-10.6447 249.666,-8.43808 242.5,-7.25022 184.185,2.41674 167.815,2.41674 109.5,-7.25022 105.581,-7.89983 101.543,-8.85412 97.5758,-9.97191"/>
<polygon fill="#23373b" stroke="#23373b" points="96.451,-6.65668 87.9701,-13.0069 98.56,-13.3314 96.451,-6.65668"/>
<text text-anchor="middle" x="176" y="-10.2502" font-family="Fira Sans light" font-size="10.00" fill="#23373b">03. Proof of Possession (PoP)</text>
</g>
<!-- Bob&#45;&gt;Bob -->
<g id="edge2" class="edge"><title>Bob&#45;&gt;Bob</title>
<path fill="none" stroke="#23373b" d="M269.775,-35.9172C262.686,-46.9065 268.594,-58.2502 287.5,-58.2502 300.498,-58.2502 307.352,-52.8885 308.063,-45.9665"/>
<polygon fill="#23373b" stroke="#23373b" points="311.311,-44.5892 305.225,-35.9172 304.575,-46.4921 311.311,-44.5892"/>
<text text-anchor="middle" x="287.5" y="-61.2502" font-family="Fira Sans light" font-size="10.00" fill="#23373b">02. Onderteken informatie (privé)</text>
</g>
</g>
</svg>
