<?xml version="1.0" encoding="UTF-8" standalone="no"?>
<!DOCTYPE svg PUBLIC "-//W3C//DTD SVG 1.1//EN"
 "http://www.w3.org/Graphics/SVG/1.1/DTD/svg11.dtd">
<!-- Generated by graphviz version 2.38.0 (20140413.2041)
 -->
<!-- Title: life_cycle Pages: 1 -->
<svg width="402pt" height="208pt"
 viewBox="0.00 0.00 402.00 208.00" xmlns="http://www.w3.org/2000/svg" xmlns:xlink="http://www.w3.org/1999/xlink">
<g id="graph0" class="graph" transform="scale(1 1) rotate(0) translate(4 204)">
<title>life_cycle</title>
<polygon fill="#fafafa" stroke="none" points="-4,4 -4,-204 398,-204 398,4 -4,4"/>
<!-- 02. Validatie -->
<g id="node1" class="node"><title>02. Validatie</title>
<ellipse fill="none" stroke="#23373b" cx="45.5516" cy="-21.8024" rx="45.9042" ry="18"/>
<text text-anchor="middle" x="45.5516" y="-19.0024" font-family="Fira Sans light" font-size="11.00" fill="#23373b">02. Validatie</text>
</g>
<!-- 03. Uitgifte -->
<g id="node3" class="node"><title>03. Uitgifte</title>
<ellipse fill="none" stroke="#23373b" cx="182.746" cy="-68.4391" rx="41.4846" ry="18"/>
<text text-anchor="middle" x="182.746" y="-65.6391" font-family="Fira Sans light" font-size="11.00" fill="#23373b">03. Uitgifte</text>
</g>
<!-- 02. Validatie&#45;&gt;03. Uitgifte -->
<g id="edge3" class="edge"><title>02. Validatie&#45;&gt;03. Uitgifte</title>
<path fill="none" stroke="#23373b" d="M80.1715,-33.5708C98.5064,-39.8034 121.174,-47.5089 140.534,-54.0898"/>
<polygon fill="#23373b" stroke="#23373b" points="139.431,-57.4118 150.026,-57.3166 141.684,-50.7843 139.431,-57.4118"/>
</g>
<!-- 05. Revocatie -->
<g id="node2" class="node"><title>05. Revocatie</title>
<ellipse fill="none" stroke="#23373b" cx="345.045" cy="-18.4835" rx="48.9176" ry="18"/>
<text text-anchor="middle" x="345.045" y="-15.6835" font-family="Fira Sans light" font-size="11.00" fill="#23373b">05. Revocatie</text>
</g>
<!-- 03. Uitgifte&#45;&gt;05. Revocatie -->
<g id="edge5" class="edge"><title>03. Uitgifte&#45;&gt;05. Revocatie</title>
<path fill="none" stroke="#23373b" d="M216.769,-57.9668C240.259,-50.7365 271.812,-41.0246 297.745,-33.0423"/>
<polygon fill="#23373b" stroke="#23373b" points="298.853,-36.3635 307.381,-30.0765 296.794,-29.6732 298.853,-36.3635"/>
</g>
<!-- 04. Beheer -->
<g id="node4" class="node"><title>04. Beheer</title>
<ellipse fill="none" stroke="#23373b" cx="304.956" cy="-182.282" rx="41.4846" ry="18"/>
<text text-anchor="middle" x="304.956" y="-179.482" font-family="Fira Sans light" font-size="11.00" fill="#23373b">04. Beheer</text>
</g>
<!-- 03. Uitgifte&#45;&gt;04. Beheer -->
<g id="edge4" class="edge"><title>03. Uitgifte&#45;&gt;04. Beheer</title>
<path fill="none" stroke="#23373b" d="M200.516,-84.9928C221.333,-104.384 255.975,-136.654 279.608,-158.669"/>
<polygon fill="#23373b" stroke="#23373b" points="277.462,-161.453 287.164,-165.708 282.233,-156.331 277.462,-161.453"/>
</g>
<!-- 01. Registratie -->
<g id="node5" class="node"><title>01. Registratie</title>
<ellipse fill="none" stroke="#23373b" cx="73.3644" cy="-164.049" rx="50.5248" ry="18"/>
<text text-anchor="middle" x="73.3644" y="-161.249" font-family="Fira Sans light" font-size="11.00" fill="#23373b">01. Registratie</text>
</g>
<!-- 01. Registratie&#45;&gt;02. Validatie -->
<g id="edge1" class="edge"><title>01. Registratie&#45;&gt;02. Validatie</title>
<path fill="none" stroke="#23373b" stroke-dasharray="5,2" d="M69.8419,-146.033C65.1239,-121.904 56.7013,-78.8267 51.1198,-50.2804"/>
<polygon fill="#23373b" stroke="#23373b" points="54.4873,-49.2636 49.1334,-40.1211 47.6174,-50.6069 54.4873,-49.2636"/>
</g>
<!-- 01. Registratie&#45;&gt;03. Uitgifte -->
<g id="edge2" class="edge"><title>01. Registratie&#45;&gt;03. Uitgifte</title>
<path fill="none" stroke="#23373b" stroke-dasharray="5,2" d="M92.6678,-147.176C110.348,-131.722 136.676,-108.709 156.307,-91.5486"/>
<polygon fill="#23373b" stroke="#23373b" points="158.775,-94.0405 164.001,-84.8241 154.168,-88.7701 158.775,-94.0405"/>
</g>
</g>
</svg>
